<svg version="1.2" xmlns="http://www.w3.org/2000/svg" viewBox="0 0 2503 2503" width="2503" height="2503">
	<style>
		.s0 { fill: #ffffff } 
	</style>
	<path class="s0" d="m1181.21 16.44c-204.55 10.03-391.86 66.59-563.13 169.67-95.86 57.75-209.77 152.81-285.58 237.04-228.22 255.09-332.1 548.69-316.06 894.43 9.63 208.17 65.38 393.47 170.07 567.55 123.53 204.96 331.3 393.87 540.27 490.93 164.44 76.61 328.09 111.11 524.62 111.11 258.71 0 475.7-63.38 675.84-197.34 123.14-82.23 229.03-183.3 321.28-305.63 172.87-230.23 251.88-495.35 237.84-798.98-8.02-171.26-43.72-316.46-113.91-462.05-89.44-185.71-220.2-343.34-391.86-471.28-186.11-139.58-411.12-222.21-634.93-233.84-90.65-4.41-105.49-4.81-164.45-1.61zm-296 765.29c66.18 16.44 123.93 50.93 174.47 103.88 74.61 78.21 115.92 178.08 131.16 314.45 2.41 21.66 4.41 49.74 4.41 63.38v24.06h-691.08l2.41 44.92c7.22 132.77 75 222.61 194.13 256.7 41.31 12.04 129.55 12.84 169.66 2.01 77.41-20.86 143.59-81.42 154.82-141.59l2.41-13.63h152.41l-3.21 12.83c-22.86 105.89-89.84 191.32-188.91 241.46-69.39 34.89-178.09 50.13-272.74 38.5-96.27-12.03-170.87-46.52-234.24-108.29-65.38-64.18-101.88-137.18-125.14-250.68-11.63-58.56-12.84-186.51-2.01-237.05 26.88-123.94 93.06-229.02 182.9-289.99 48.93-33.29 116.32-60.16 171.27-68.58 40.1-6.02 139.58-2.01 177.28 7.62zm686.67 154.82c62.57 91.45 115.11 166.45 117.11 166.45 1.61 0 55.76-74.2 120.33-164.85 64.58-90.64 119.13-165.65 121.53-166.45 2.41-0.8 45.73-1.2 95.86-0.8l91.45 1.2-159.23 212.58c-87.44 116.72-161.64 216.59-164.85 221.4-5.62 8.42 2.81 20.86 176.08 262.72 100.27 139.57 183.7 256.29 185.3 258.7 2.41 4.01-18.45 5.21-98.67 5.21l-101.47-0.4-131.96-196.13c-72.2-108.3-132.76-196.54-134.37-196.54-1.6 0-62.57 88.24-135.16 196.54l-131.96 196.13-95.06 0.4c-52.54 0-95.46-0.8-95.46-1.6 0-1.2 80.22-114.31 178.48-251.89 98.27-137.57 177.69-251.88 176.89-254.29-1.21-2.81-75.01-104.28-164.45-226.21-89.44-121.94-162.84-223.01-162.84-225.02 0-2 43.71-3.61 99.47-3.61h99.07z"/>
	<path class="s0" d="m729.99 906.47c-58.56 7.62-101.88 29.28-144.8 72.19-25.27 24.47-33.69 36.9-48.93 68.19-17.25 35.69-30.89 83.02-30.89 105.89v10.42h525.43v-13.23c0-23.67-15.24-74.2-32.08-106.69-38.91-75.01-109.5-124.74-194.13-136.37-33.69-4.82-41.71-4.82-74.6-0.4z"/>
</svg>