<svg version="1.2" xmlns="http://www.w3.org/2000/svg" viewBox="0 0 1005 968" width="1005" height="968">
	<style>
		.s0 { fill: #ffffff } 
	</style>
	<path fill-rule="evenodd" class="s0" d="m583.33 16.03c-6.84 0-13.19 1.46-19.05 3.41 12.45 8.31 19.29 19.3 22.71 31.75 0.24 1.71 0.73 2.94 0.98 4.64 0.24 1.47 0.49 2.94 0.49 4.4 0.97 21.49-5.62 24.18-10.26 36.88-7.09 16.36-5.13 33.95 3.42 48.11 0.73 1.71 1.71 3.67 2.93 5.38-9.28-61.79 42.25-71.07 51.77-90.37 0.74-16.85-13.18-28.09-24.17-35.9-10.51-6.35-20.03-8.3-28.82-8.3zm77.66 13.92c-0.98 5.61-0.24 4.15-0.49 7.08-0.24 1.95-0.24 4.4-0.48 6.35-0.49 1.95-0.98 3.91-1.71 5.86-0.49 1.95-1.22 3.91-1.96 5.86-0.97 1.96-1.71 3.67-2.68 5.62-0.74 0.98-1.23 1.95-1.96 2.93q-0.73 1.1-1.46 2.2c-1.22 1.71-2.45 3.42-3.67 4.88-1.46 1.47-2.68 3.18-4.39 4.4v0.24c-1.47 1.22-2.93 2.69-4.64 3.91-5.13 3.91-10.99 6.84-16.37 10.5-1.71 1.22-3.42 2.2-4.88 3.67-1.71 1.22-3.18 2.44-4.64 3.9-1.71 1.47-2.93 2.94-4.4 4.65-1.22 1.46-2.68 3.17-3.66 4.88-1.22 1.71-2.44 3.42-3.42 5.13-0.98 1.95-1.71 3.66-2.69 5.62-0.73 1.95-1.46 3.66-1.95 5.61-0.73 2.2-1.22 4.16-1.71 6.11-0.25 0.98-0.25 2.2-0.49 3.17-0.24 0.98-0.24 1.96-0.49 2.93 0 1.96-0.24 4.16-0.24 6.11 0 1.47 0 2.93 0.24 4.4 0 1.95 0.25 3.9 0.74 6.1 0.24 1.96 0.73 3.91 1.22 5.86 0.73 1.96 1.22 3.91 1.95 5.87 0.49 1.22 1.22 2.44 1.71 3.41l-56.17-21.73c-9.53-2.69-18.81-5.13-28.33-7.33q-7.7-1.83-15.39-3.66c-14.65-2.93-29.55-5.13-44.45-6.6-0.49 0-0.73-0.24-1.22-0.24-14.66-1.47-29.07-2.2-43.72-2.2-10.75 0-21.49 0.49-31.99 1.22-14.9 0.98-29.8 2.93-44.7 5.38-3.66 0.48-7.32 1.22-10.99 1.95-7.57 1.46-14.9 3.17-21.98 4.88q-5.49 1.47-10.99 2.93c-3.66 1.47-7.08 3.18-10.5 4.64q-4.03 1.84-8.06 3.67c-0.49 0.24-0.98 0.24-1.22 0.49-2.44 1.22-4.64 2.19-6.84 3.42-0.73 0.24-1.22 0.48-1.71 0.73-2.69 1.22-5.37 2.68-7.57 3.91-1.71 0.73-3.42 1.71-4.89 2.44-0.73 0.49-1.71 0.98-2.19 1.22-2.2 1.22-4.4 2.44-6.35 3.66q-3.3 1.83-5.87 3.67c-1.71 1.22-3.42 2.19-4.88 3.42-0.25 0.24-0.49 0.24-0.73 0.48-1.47 0.98-3.18 2.2-4.64 3.42 0 0-0.25 0.25-0.49 0.49q-1.83 1.47-3.67 2.93c-0.48 0.25-0.97 0.73-1.46 0.98-1.22 0.98-2.44 2.2-3.66 3.17-0.25 0.49-0.74 0.74-0.98 0.98-1.47 1.47-2.93 2.69-4.4 4.15-0.24 0-0.24 0.25-0.49 0.49-1.46 1.22-2.93 2.69-4.39 4.15-0.25 0.25-0.25 0.49-0.49 0.49-1.22 1.22-2.44 2.44-3.66 3.91-0.49 0.49-1.22 0.98-1.71 1.46-1.22 1.47-2.69 2.94-4.15 4.4-0.25 0.49-0.74 0.73-0.98 1.22-1.96 1.96-3.67 3.91-5.62 5.86q-0.37 0.37-0.73 0.74c-3.91 4.15-8.06 8.3-12.46 11.96-4.39 3.91-9.03 7.57-13.67 10.75-4.89 3.42-9.53 6.35-14.66 9.28q-7.33 4.03-15.39 7.33c-5.12 2.2-10.5 4.15-15.87 5.86-10.26 2.2-20.76 6.35-29.8 7.08-1.95 0-4.15 0.49-6.1 0.73-2.2 0.49-4.15 0.98-6.11 1.47q-2.93 1.1-5.86 2.2c-1.95 0.73-3.91 1.71-5.86 2.68-1.71 1.23-3.66 2.2-5.37 3.42-1.71 1.22-3.42 2.69-4.89 4.16-1.71 1.22-3.42 2.93-4.88 4.39-1.47 1.71-2.93 3.18-4.16 4.89-1.22 1.95-2.68 3.66-3.66 5.61-1.22 1.71-2.44 3.67-3.42 5.62-0.98 2.2-1.95 4.15-2.68 6.35-0.74 1.95-1.47 4.15-2.2 6.35-0.49 1.95-0.98 3.91-1.22 5.86 0 0.25-0.25 0.49-0.25 0.74-0.49 2.19-0.49 5.12-0.73 6.59-0.25 1.71-0.49 3.17-0.49 4.88 0 0.98 0 2.2 0.25 3.18 0.24 1.71 0.48 3.17 0.97 4.64 0.49 1.47 0.98 2.93 1.71 4.4v0.24c0.73 1.47 1.71 2.93 2.69 4.4 0.98 1.46 1.95 2.93 3.17 4.39 1.22 1.22 2.69 2.69 4.16 3.91 1.46 1.47 2.93 2.69 4.64 3.91 5.86 5.13 7.32 6.84 14.89 10.74 1.23 0.74 2.45 1.23 3.91 1.96 0.25 0 0.49 0.24 0.73 0.24 0 0.49 0 0.74 0.25 1.22 0.24 1.96 0.73 3.91 1.22 5.87 0.49 2.19 1.22 4.15 1.95 5.86 0.74 1.46 1.23 2.93 1.96 4.39 0.24 0.49 0.49 0.98 0.73 1.22 0.98 1.96 1.95 3.67 2.93 5.38q1.83 2.56 3.66 5.13c1.23 1.46 2.69 3.17 4.16 4.64 1.46 1.46 2.93 2.68 4.64 4.15 0 0 0.24 0.24 0.49 0.24 1.46 1.22 2.93 2.45 4.39 3.42 1.71 1.22 3.42 2.2 5.37 3.18 1.71 0.98 3.67 1.95 5.62 2.68 1.47 0.74 3.18 1.23 4.89 1.71 0.24 0.25 0.48 0.25 0.97 0.49 0.98 0.25 2.2 0.49 3.18 0.73-0.73 13.19-0.98 25.65 0.98 30.05 2.19 4.88 12.94-10.02 23.69-27.11-1.47 16.85-2.45 36.63 0 42.49 2.68 6.11 17.34-12.94 30.04-33.95 173.16-40.05 331.18 79.62 347.78 248.63-3.17-26.38-35.66-41.03-50.55-37.37-7.33 18.08-19.79 41.28-39.81 55.69 1.71-16.12 0.97-32.73-2.45-48.85-5.37 22.47-15.87 43.48-30.28 61.55-23.2 1.71-46.4-9.53-58.62-26.38-0.97-0.73-1.22-2.2-1.95-3.17-0.73-1.71-1.46-3.42-1.95-5.13q-1.1-2.57-1.47-5.13c-0.24-1.71-0.24-3.42-0.24-5.37q0-1.84 0-3.67c0.24-1.71 0.73-3.42 1.22-5.13 0.49-1.71 0.98-3.42 1.71-5.13 0.97-1.7 1.71-3.41 2.93-5.12 4.15-11.73 4.15-21.25-3.42-26.87-1.47-0.98-2.93-1.71-4.64-2.44-0.98-0.25-2.2-0.73-3.18-0.98-0.73-0.24-1.22-0.49-1.95-0.73-1.71-0.49-3.42-0.98-5.13-1.22q-2.56-0.74-5.13-0.74c-1.71-0.24-3.66-0.48-5.37-0.48-1.22 0-2.44 0.24-3.66 0.24-1.96 0-3.67 0.25-5.38 0.73-1.71 0.25-3.42 0.49-5.13 0.98-1.71 0.49-3.42 0.98-5.13 1.71-1.7 0.73-3.17 1.47-4.88 2.2-1.47 0.73-2.93 1.71-4.64 2.44-56.91 37.12-22.96 124.07 15.87 149.23-14.65 2.68-29.55 5.86-33.7 9.03-0.24 0.25-0.49 0.49-0.49 0.49 10.5 6.35 21.5 11.72 32.97 16.36 15.63 5.13 32.24 9.77 39.57 11.73v0.24q30.41 6.23 61.55 4.4c108.19-7.57 196.85-89.88 212.97-198.32 0.48 2.2 0.97 4.15 1.46 6.35 0.73 4.4 1.71 9.04 2.2 13.68v0.24c0.49 2.2 0.73 4.4 0.98 6.35v0.98c0.24 2.2 0.48 4.4 0.48 6.35 0.25 2.69 0.49 5.37 0.49 8.06v3.91c0 1.22 0.25 2.69 0.25 3.91 0 1.46-0.25 2.93-0.25 4.39v3.42c0 1.71-0.24 3.18-0.24 4.89 0 0.97 0 1.95-0.25 3.17 0 1.71-0.24 3.42-0.24 5.37-0.25 0.74-0.25 1.47-0.25 2.2-0.24 1.96-0.48 3.67-0.73 5.62 0 0.73 0 1.47-0.24 2.2-0.25 2.44-0.74 4.64-0.98 7.08v0.49c-0.49 2.2-0.98 4.64-1.47 6.84v0.73q-0.73 3.3-1.46 6.6c0 0.24-0.25 0.73-0.25 0.97-0.48 2.2-0.97 4.4-1.71 6.6v0.73c-0.73 2.44-1.46 4.64-1.95 6.84-0.24 0.24-0.24 0.49-0.24 0.49q-1.1 3.66-2.2 7.32c-0.98 2.45-1.71 4.64-2.69 7.09-0.98 2.44-1.71 4.88-2.69 7.08-0.97 2.44-1.95 4.64-2.93 7.08h-0.24c-0.98 2.2-1.95 4.64-3.18 6.84-0.24 0.73-0.48 1.22-0.73 1.71-0.24 0.24-0.24 0.49-0.49 0.73-15.87 32-39.32 60.08-68.63 82.06-1.95 1.23-3.9 2.69-5.86 4.16-0.49 0.48-1.22 0.73-1.71 1.22-1.71 1.22-3.42 2.44-5.37 3.66l0.73 1.47h0.25q5.13-0.74 10.25-1.47h0.25c6.35-0.98 12.7-2.2 19.05-3.42 1.71-0.24 3.66-0.73 5.37-1.22 1.22-0.24 2.2-0.49 3.42-0.73 1.71-0.25 3.42-0.74 5.13-0.98 1.47-0.49 2.93-0.73 4.4-1.22 24.42-5.86 48.11-13.92 70.82-23.45-38.83 53-90.85 95.74-151.66 123.83 28.08-1.96 56.17-6.6 83.28-14.41 98.42-29.07 181.22-95.25 230.8-184.4-10.02 56.42-32.48 110.15-65.7 157.04q35.54-23.44 65.21-54.21c54.71-57.16 90.61-129.69 102.82-207.6 8.3 38.59 10.75 78.4 7.08 117.72 176.34-245.94 14.66-500.92-52.99-568.08-0.25-0.49-0.49-0.74-0.49-1.23-0.25 0.25-0.25 0.25-0.25 0.49 0-0.24 0-0.24-0.24-0.49 0 2.94-0.25 5.87-0.49 8.8-0.73 5.61-1.47 10.99-2.44 16.36-1.22 5.37-2.69 10.75-4.15 16.12-1.71 5.13-3.67 10.5-5.87 15.63-2.19 4.88-4.64 10.01-7.32 14.9-2.69 4.64-5.62 9.52-8.8 13.92-3.17 4.64-6.59 9.04-10.01 13.19-3.66 4.39-7.57 8.3-11.48 12.21-2.44 2.2-4.64 4.15-7.08 6.11-1.95 1.71-3.66 3.17-5.62 4.88-4.39 3.42-8.79 6.59-13.67 9.53-4.65 2.93-9.53 5.86-14.41 8.3-5.13 2.44-10.26 4.64-15.39 6.84-5.13 1.95-10.5 3.66-15.88 5.13-5.37 1.46-10.99 2.68-16.36 3.66-5.62 0.98-11.23 1.47-16.61 1.95-3.9 0.25-7.81 0.49-11.72 0.49-5.62 0-11.23-0.49-16.61-0.98-5.62-0.48-11.23-1.22-16.61-2.44-5.61-0.98-10.99-2.44-16.36-4.15h-0.24c5.37-0.49 10.74-0.98 16.12-1.95 5.61-0.98 10.99-2.2 16.36-3.67 5.37-1.46 10.75-3.17 15.87-5.13 5.38-1.95 10.51-4.39 15.39-6.83 5.13-2.45 9.77-5.13 14.65-8.06 4.64-3.18 9.29-6.35 13.68-9.77q6.6-5.13 12.46-10.99c4.15-3.67 7.81-7.82 11.48-11.97q5.49-6.6 10.25-13.19c0.49-0.73 0.98-1.71 1.47-2.44 2.44-3.91 4.88-7.82 7.08-11.73 2.69-4.88 5.13-9.76 7.33-14.89 2.2-5.13 4.15-10.26 5.86-15.63 1.71-5.13 2.93-10.51 4.15-15.88 0.98-5.62 1.96-10.99 2.44-16.36 0.49-5.62 0.98-11.24 0.98-16.61 0-3.91-0.24-7.82-0.49-11.72-0.48-5.62-1.22-10.99-1.95-16.37-0.98-5.61-2.2-10.99-3.66-16.36-1.71-5.13-3.42-10.5-5.38-15.63-1.95-5.13-4.39-10.26-6.84-15.14-2.68-4.89-5.37-9.77-8.3-14.41-3.17-4.64-6.35-9.04-9.77-13.44-3.66-4.15-7.33-8.3-11.23-12.45-1.96-1.96-4.15-4.15-6.35-6.11-10.99-8.55-22.47-16.61-33.95-23.93-1.71-0.98-3.18-1.71-4.89-2.44-8.06-5.13-15.63-7.82-23.2-10.26z"/>
</svg>